<?xml version="1.0" standalone="no"?>
<!DOCTYPE svg PUBLIC "-//W3C//DTD SVG 20010904//EN"
 "http://www.w3.org/TR/2001/REC-SVG-20010904/DTD/svg10.dtd">
<svg version="1.0" xmlns="http://www.w3.org/2000/svg"
 width="880.000000pt" height="880.000000pt" viewBox="0 0 880.000000 880.000000"
 preserveAspectRatio="xMidYMid meet">
<metadata>
Created by potrace 1.14, written by Peter Selinger 2001-2017
</metadata>
<g transform="translate(0.000000,880.000000) scale(0.100000,-0.100000)"
fill="#000000" stroke="none">
<path d="M3458 6995 c-2 -2 -41 -6 -88 -10 -130 -10 -135 -11 -148 -19 -7 -4
-12 -5 -12 -3 0 4 -99 -14 -150 -28 -14 -4 -34 -8 -45 -10 -41 -7 -253 -83
-306 -109 -30 -15 -54 -27 -54 -25 0 4 -89 -43 -160 -85 -74 -43 -233 -152
-250 -171 -5 -6 -28 -25 -50 -42 -40 -31 -140 -128 -205 -199 -167 -184 -326
-446 -408 -674 -36 -101 -69 -205 -76 -240 -3 -14 -8 -36 -11 -50 -41 -175
-56 -389 -42 -598 4 -52 9 -98 12 -103 4 -5 -2 -9 -12 -9 -120 -3 -195 -12
-303 -35 -93 -20 -85 -18 -150 -39 -480 -159 -842 -567 -945 -1063 -12 -57
-16 -83 -22 -153 -21 -237 12 -460 101 -674 78 -187 166 -317 315 -466 84 -83
244 -209 262 -206 4 1 15 -6 25 -15 43 -38 301 -142 384 -155 14 -2 36 -7 50
-10 113 -28 289 -29 3440 -28 1774 1 3244 4 3267 7 147 20 308 83 438 170 60
41 207 182 235 226 8 13 20 29 27 36 39 41 124 232 144 322 7 32 14 65 16 73
14 58 18 209 8 295 -6 51 -37 183 -53 226 -6 13 -10 27 -11 31 -3 18 -84 163
-113 204 -43 60 -226 244 -242 244 -2 0 -41 22 -87 50 -46 27 -91 50 -99 50
-9 0 -20 4 -25 8 -29 24 -185 61 -285 68 -47 4 -87 8 -89 10 -2 1 10 40 27 86
26 72 37 116 68 258 26 119 23 405 -6 533 -4 20 -6 37 -4 37 3 0 0 8 -5 18 -5
9 -11 31 -14 47 -13 82 -104 302 -169 405 -157 252 -356 438 -609 567 -124 64
-292 123 -394 139 -22 3 -43 8 -47 10 -14 9 -159 18 -263 17 -98 -1 -162 -5
-245 -17 -49 -8 -206 -49 -255 -68 -99 -37 -218 -93 -258 -121 -32 -22 -57
-17 -57 13 0 11 -4 20 -10 20 -5 0 -10 6 -10 14 0 12 -30 73 -94 191 -28 52
-114 177 -164 240 -237 297 -501 497 -872 658 -36 16 -182 66 -210 72 -8 2
-30 8 -48 14 -18 5 -35 10 -37 10 -5 -1 -16 2 -85 17 -92 20 -246 36 -372 38
-81 2 -149 2 -150 1z"/>
</g>
</svg>
